<svg width="222" height="24" viewBox="0 0 222 24" fill="none" xmlns="http://www.w3.org/2000/svg">
<path d="M221.061 13.0607C221.646 12.4749 221.646 11.5251 221.061 10.9393L211.515 1.3934C210.929 0.807611 209.979 0.807611 209.393 1.3934C208.808 1.97919 208.808 2.92893 209.393 3.51472L217.879 12L209.393 20.4853C208.808 21.0711 208.808 22.0208 209.393 22.6066C209.979 23.1924 210.929 23.1924 211.515 22.6066L221.061 13.0607ZM0 13.5H220V10.5H0V13.5Z" fill="white"/>
</svg>
<svg xmlns="http://www.w3.org/2000/svg" version="1.1" xmlns:xlink="http://www.w3.org/1999/xlink" xmlns:svgjs="http://svgjs.dev/svgjs" viewBox="0 0 800 800"><g stroke-width="10" stroke="hsl(227, 71%, 57%)" fill="none" stroke-linecap="round" stroke-linejoin="round"><path d="M250 250Q450 350 550 550 " marker-end="url(#SvgjsMarker1009)"></path></g>

<defs><marker markerWidth="10" markerHeight="10" refX="5" refY="5" viewBox="0 0 10 10" orient="auto" id="SvgjsMarker1009"><polyline points="0,5 5,2.5 0,0" fill="none" stroke-width="1.6666666666666667" stroke="hsl(227, 71%, 57%)" stroke-linecap="round" transform="matrix(1,0,0,1,1.6666666666666667,2.5)" stroke-linejoin="round"></polyline></marker></defs></svg>