<svg width="530" height="291" viewBox="0 0 530 291" fill="none" xmlns="http://www.w3.org/2000/svg">

<path d="M10 0.5H118.199C120.633 0.5 122.973 1.4339 124.739 3.1091L131.169 9.21209C133.12 11.0636 135.708 12.0958 138.397 12.0958H480.123C484.834 12.0958 488.833 15.5481 489.521 20.2085L527.814 279.613C528.661 285.35 524.214 290.5 518.415 290.5H370.416C368.062 290.5 365.792 289.626 364.046 288.048L357.538 282.167C355.608 280.422 353.099 279.456 350.498 279.456H10C4.75329 279.456 0.5 275.203 0.5 269.956V10C0.5 4.7533 4.7533 0.5 10 0.5Z" stroke="url(#paint0_linear_729_5198)" stroke-opacity="0.56"/>
<circle cx="3.43416" cy="3.43416" r="2.93416" transform="matrix(-1 0 0 1 16.8672 10)" stroke="#9B1CBF" stroke-opacity="0.3"/>
<circle cx="3.43416" cy="3.43416" r="2.93416" transform="matrix(-1 0 0 1 30.8984 10)" stroke="#3672FE" stroke-opacity="0.6"/>
<circle cx="3.43416" cy="3.43416" r="2.93416" transform="matrix(-1 0 0 1 44.9375 10)" stroke="#03E7F3" stroke-opacity="0.9"/>
<defs>
<linearGradient id="paint0_linear_729_5198" x1="466.963" y1="9.16503e-05" x2="16.6548" y2="288.084" gradientUnits="userSpaceOnUse">
<stop stop-color="#B8B8B8"/>
<stop offset="0.567708" stop-color="white" stop-opacity="0"/>
<stop offset="1" stop-color="#A6A6A6"/>
</linearGradient>
</defs>
</svg>
