<svg width="994" height="206" viewBox="0 0 994 206" fill="none" xmlns="http://www.w3.org/2000/svg">
<path d="M5.02431 0H988.052C991.468 0 993.878 3.34914 992.793 6.58815L927.138 202.588C926.455 204.626 924.546 206 922.397 206H667.715C667.002 206 666.296 205.847 665.647 205.552L648.582 197.797C647.933 197.502 647.227 197.349 646.514 197.349H348.866C348.152 197.349 347.447 197.502 346.797 197.797L329.733 205.552C329.083 205.847 328.378 206 327.664 206H72.9433C70.8129 206 68.9165 204.65 68.2189 202.637L0.299931 6.63712C-0.825655 3.38891 1.58661 0 5.02431 0Z" fill="white"/>
</svg>
