<svg width="54" height="54" viewBox="0 0 54 54" fill="none" xmlns="http://www.w3.org/2000/svg">
<g filter="url(#filter0_d_171_3777)">
<path d="M27 12C30.9782 12 34.7936 13.5804 37.6066 16.3934C40.4196 19.2064 42 23.0218 42 27C42 30.9782 40.4196 34.7936 37.6066 37.6066C34.7936 40.4196 30.9782 42 27 42C23.0218 42 19.2064 40.4196 16.3934 37.6066C13.5804 34.7936 12 30.9782 12 27C12 23.0218 13.5804 19.2064 16.3934 16.3934C19.2064 13.5804 23.0218 12 27 12ZM25.5938 19.0312V27C25.5938 27.4688 25.8281 27.9082 26.2207 28.1719L31.8457 31.9219C32.4902 32.3555 33.3633 32.1797 33.7969 31.5293C34.2305 30.8789 34.0547 30.0117 33.4043 29.5781L28.4062 26.25V19.0312C28.4062 18.252 27.7793 17.625 27 17.625C26.2207 17.625 25.5938 18.252 25.5938 19.0312Z" fill="white" fill-opacity="0.58" shape-rendering="crispEdges"/>
</g>
<defs>
<filter id="filter0_d_171_3777" x="0" y="0" width="54" height="54" filterUnits="userSpaceOnUse" color-interpolation-filters="sRGB">
<feFlood flood-opacity="0" result="BackgroundImageFix"/>
<feColorMatrix in="SourceAlpha" type="matrix" values="0 0 0 0 0 0 0 0 0 0 0 0 0 0 0 0 0 0 127 0" result="hardAlpha"/>
<feOffset/>
<feGaussianBlur stdDeviation="6"/>
<feComposite in2="hardAlpha" operator="out"/>
<feColorMatrix type="matrix" values="0 0 0 0 1 0 0 0 0 1 0 0 0 0 1 0 0 0 0.25 0"/>
<feBlend mode="normal" in2="BackgroundImageFix" result="effect1_dropShadow_171_3777"/>
<feBlend mode="normal" in="SourceGraphic" in2="effect1_dropShadow_171_3777" result="shape"/>
</filter>
</defs>
</svg>
