<svg width="614" height="280" viewBox="0 0 614 280" fill="none" xmlns="http://www.w3.org/2000/svg">

<path d="M10.6985 0.5H603.362C609.179 0.5 613.629 5.67984 612.754 11.4301L573.164 271.43C572.458 276.071 568.467 279.5 563.773 279.5H416.258C413.739 279.5 411.323 278.499 409.542 276.718L403.638 270.816C401.669 268.847 398.999 267.741 396.214 267.741H219.256C216.472 267.741 213.801 268.847 211.832 270.816L205.928 276.718C204.147 278.499 201.731 279.5 199.212 279.5H51.6531C46.9771 279.5 42.9964 276.097 42.2688 271.478L1.31419 11.4782C0.406082 5.71311 4.86232 0.5 10.6985 0.5Z" stroke="url(#paint0_linear_598_4482)" stroke-opacity="0.56"/>
<defs>
<linearGradient id="paint0_linear_598_4482" x1="541.735" y1="8.81858e-05" x2="79.9277" y2="356.87" gradientUnits="userSpaceOnUse">
<stop stop-color="#B8B8B8"/>
<stop offset="0.567708" stop-color="white" stop-opacity="0"/>
<stop offset="1" stop-color="#A6A6A6"/>
</linearGradient>
</defs>
</svg>
